<svg id="Layer_1" data-name="Layer 1" xmlns="http://www.w3.org/2000/svg" viewBox="0 0 300 192"><defs><style>.cls-1{fill:#e55a5a;}.cls-2{fill:#ffa539;}</style></defs><title>fivetwo</title><g id="widget"><path class="cls-1" d="M150,4.72C93.87,4.72,43.42,25.43,5,61.18c38.09,34.41,89.21,56.46,145,56.46A212.66,212.66,0,0,0,295,61.18C256.91,26.77,205.46,4.72,150,4.72ZM61.74,61.18a8.52,8.52,0,1,1-8.52-8.52A8.52,8.52,0,0,1,61.74,61.18Z"/><path class="cls-2" d="M150,74.35c-56.13,0-106.58,20.71-145,56.46,38.09,34.41,89.21,56.46,145,56.46a212.66,212.66,0,0,0,145-56.46C256.91,96.4,205.46,74.35,150,74.35ZM61.74,130.82a8.52,8.52,0,1,1-8.52-8.52A8.52,8.52,0,0,1,61.74,130.82Z"/></g></svg>