<?xml version="1.0" encoding="utf-8"?>
<!-- Generator: Adobe Illustrator 21.0.0, SVG Export Plug-In . SVG Version: 6.00 Build 0)  -->
<svg version="1.1" id="Layer_1" xmlns="http://www.w3.org/2000/svg" xmlns:xlink="http://www.w3.org/1999/xlink" x="0px" y="0px"
	 viewBox="0 0 53 53" style="enable-background:new 0 0 53 53;" xml:space="preserve">
<style type="text/css">
	.st0{fill:#BABABA;}
</style>
<g transform="translate(0,-952.36218)">
	<path class="st0" d="M21.7,952.4c-12,0-21.7,9.8-21.7,21.7c0,12,9.8,21.7,21.7,21.7c4.8,0,9.2-1.5,12.8-4.2l12.7,12.7
		c1.3,1.3,3.5,1.3,4.8,0s1.3-3.5,0-4.8l-12.7-12.7c2.6-3.6,4.2-8,4.2-12.8C43.5,962.1,33.7,952.4,21.7,952.4z M21.7,959.2
		c8.3,0,14.9,6.7,14.9,14.9c0,8.3-6.7,14.9-14.9,14.9c-8.3,0-14.9-6.7-14.9-14.9C6.8,965.8,13.4,959.2,21.7,959.2z"/>
</g>
</svg>
