<?xml version="1.0" encoding="utf-8"?>
<!-- Generator: Adobe Illustrator 21.0.0, SVG Export Plug-In . SVG Version: 6.00 Build 0)  -->
<svg version="1.1" id="Layer_1" xmlns="http://www.w3.org/2000/svg" xmlns:xlink="http://www.w3.org/1999/xlink" x="0px" y="0px"
	 viewBox="0 0 70.2 88.3" style="enable-background:new 0 0 70.2 88.3;" xml:space="preserve">
<style type="text/css">
	.st0{fill:#E55A5A;}
</style>
<path class="st0" d="M-16.1,48.9c-0.8-0.3-1.7-0.6-2.6-0.8V16c0,0,0,0,0,0s0,0,0,0c0-0.4-0.2-0.7-0.4-0.9L-33.7,0.3
	C-34,0-34.3-0.1-34.6-0.1h-35.6c-1.8,0-3.3,1.5-3.3,3.3v67.9c0,1.8,1.5,3.3,3.3,3.3h27c1.3,4,3.8,7.5,7.1,9.9
	c0.1,0.1,0.2,0.2,0.4,0.3c3.4,2.4,7.5,3.9,12,3.9c3.7,0,7.2-1,10.2-2.7c0.1,0,0.2-0.1,0.3-0.2c6-3.6,10-10.1,10-17.6
	C-3.2,59.5-8.3,52-16.1,48.9z M-33.4,4.1l10.6,10.6h-10.6V4.1z M-43.9,71.8h-26.4c-0.4,0-0.8-0.3-0.8-0.8V3.1c0-0.4,0.3-0.8,0.8-0.8
	h34.3V16c0,0.7,0.6,1.3,1.3,1.3h13.6v30.4c-0.9-0.1-1.7-0.2-2.6-0.2c-10.3,0-19.1,7.7-20.4,18c-0.1,0.8-0.2,1.7-0.2,2.5
	C-44.2,69.3-44.1,70.6-43.9,71.8z M-23.7,85.9c-3.8,0-7.3-1.2-10.2-3.2c0-0.5,0.1-1,0.1-1.3c0.9-4.7,6.1-5.4,9.2-5.4
	c2.6,0,8.7,0.6,9.3,5.9c0,0.2,0,1.1,0,1.8C-17.8,85.2-20.7,85.9-23.7,85.9z M-12.8,82.2c0-0.2,0-0.4,0-0.5c-0.6-5.1-5-8.2-11.8-8.2
	c-6.5,0-10.7,2.7-11.6,7.3c-3.4-3.3-5.5-7.9-5.5-12.9c0-0.7,0-1.5,0.1-2.2c1.1-9,8.8-15.8,17.9-15.8c2.3,0,4.6,0.4,6.7,1.3
	c6.9,2.8,11.3,9.3,11.3,16.7C-5.7,73.7-8.5,78.9-12.8,82.2z M-24.6,57.2c-4,0-6.8,3-6.8,7.2c0,4.4,3,8,6.8,8c3.7,0,6.8-3.6,6.8-8
	C-17.8,60.1-20.6,57.2-24.6,57.2z M-24.6,69.9c-2.3,0-4.3-2.5-4.3-5.5c0-2.8,1.7-4.7,4.3-4.7c2.6,0,4.3,1.8,4.3,4.7
	C-20.3,67.4-22.2,69.9-24.6,69.9z M-62.7,30h33.3c0.7,0,1.3-0.6,1.3-1.3s-0.6-1.3-1.3-1.3h-33.3c-0.7,0-1.3,0.6-1.3,1.3
	S-63.4,30-62.7,30z M-62.7,37.6h33.3c0.7,0,1.3-0.6,1.3-1.3s-0.6-1.3-1.3-1.3h-33.3c-0.7,0-1.3,0.6-1.3,1.3S-63.4,37.6-62.7,37.6z
	 M-43.1,44c0-0.7-0.6-1.3-1.3-1.3h-18.4c-0.7,0-1.3,0.6-1.3,1.3c0,0.7,0.6,1.3,1.3,1.3h18.4C-43.6,45.3-43.1,44.7-43.1,44z M11,30
	h33.3c0.7,0,1.3-0.6,1.3-1.3s-0.6-1.3-1.3-1.3H11c-0.7,0-1.3,0.6-1.3,1.3S10.3,30,11,30z M11,37.6h33.3c0.7,0,1.3-0.6,1.3-1.3
	s-0.6-1.3-1.3-1.3H11c-0.7,0-1.3,0.6-1.3,1.3S10.3,37.6,11,37.6z M30.6,44c0-0.7-0.6-1.3-1.3-1.3H11c-0.7,0-1.3,0.6-1.3,1.3
	c0,0.7,0.6,1.3,1.3,1.3h18.4C30,45.3,30.6,44.7,30.6,44z"/>
<path class="st0" d="M57.3,48.8c-0.8-0.3-1.6-0.6-2.5-0.8V16.1c0,0,0,0,0,0s0,0,0,0c0-0.4-0.2-0.7-0.4-0.9L39.7,0.4
	C39.5,0.1,39.2,0,38.8,0H3.3C1.5,0,0,1.5,0,3.3v67.9c0,1.8,1.5,3.3,3.3,3.3h27c2.8,8.1,10.4,13.9,19.4,13.9
	c11.3,0,20.5-9.2,20.5-20.5C70.2,59.4,65.1,51.9,57.3,48.8z M40,4.2l10.6,10.6H40V4.2z M29.6,71.9H3.3c-0.4,0-0.8-0.3-0.8-0.8V3.3
	c0-0.4,0.3-0.8,0.8-0.8h34.3v13.6c0,0.7,0.6,1.3,1.3,1.3h13.6v30.1c-0.9-0.1-1.8-0.2-2.7-0.2c-10.3,0-19.1,7.7-20.4,18
	c-0.1,0.8-0.2,1.7-0.2,2.5C29.2,69.2,29.3,70.6,29.6,71.9z M49.7,85.8c-9.9,0-18-8.1-18-18c0-0.8,0-1.5,0.1-2.2
	c1.1-9,8.8-15.8,17.9-15.8c2.3,0,4.6,0.4,6.7,1.3c6.9,2.8,11.3,9.3,11.3,16.7C67.7,77.7,59.6,85.8,49.7,85.8z M56.5,57.9
	c-0.5-0.5-1.3-0.5-1.8,0L44.3,68.4c-0.5,0.5-0.5,1.3,0,1.8l2.9,2.9c0.2,0.2,0.6,0.4,0.9,0.4c0.3,0,0.6-0.1,0.9-0.4l10.5-10.5
	c0.2-0.2,0.4-0.6,0.4-0.9c0-0.3-0.1-0.6-0.4-0.9L56.5,57.9z M48.1,70.4l-1.1-1.1l8.8-8.8l1.2,1.1L48.1,70.4z M45.3,73.1l-1.6,0.4
	l0.4-1.7c0.1-0.7-0.3-1.3-1-1.5c-0.7-0.1-1.3,0.3-1.5,1l-0.8,3.7c-0.1,0.4,0.1,0.9,0.4,1.2c0.2,0.2,0.5,0.3,0.9,0.3
	c0.1,0,0.2,0,0.3,0l3.5-0.9c0.7-0.2,1.1-0.9,0.9-1.5C46.7,73.3,46,72.9,45.3,73.1z"/>
</svg>
