<?xml version="1.0" encoding="utf-8"?>
<!-- Generator: Adobe Illustrator 21.0.0, SVG Export Plug-In . SVG Version: 6.00 Build 0)  -->
<svg version="1.1" id="Layer_1" xmlns="http://www.w3.org/2000/svg" xmlns:xlink="http://www.w3.org/1999/xlink" x="0px" y="0px"
	 viewBox="0 0 53 53" style="enable-background:new 0 0 53 53;" xml:space="preserve">
<style type="text/css">
	.st0{fill:#BABABA;}
</style>
<path class="st0" d="M41.3,0.2H11.7C9.1,0.2,7,2.3,7,4.9v43.2c0,2.6,2.1,4.7,4.7,4.7h20.9c0.1,0,0.3,0,0.4,0h0.1
	c0.1,0,0.2-0.1,0.3-0.1c0,0,0.1,0,0.1-0.1c0.1,0,0.2-0.1,0.2-0.1l0.1-0.1c0.1-0.1,0.1-0.1,0.2-0.2c0,0,0,0,0.1-0.1l11.5-13.6
	c0.3-0.4,0.5-0.8,0.5-1.3V4.9C46,2.3,43.9,0.2,41.3,0.2z M10.9,48.1V4.9c0-0.5,0.4-0.8,0.8-0.8h29.5c0.5,0,0.8,0.4,0.8,0.8v30.4
	h-9.5c-1.1,0-1.9,0.9-1.9,1.9v11.7H11.7C11.3,48.9,10.9,48.6,10.9,48.1z M39.9,39.2l-5.3,6.4v-6.4H39.9z"/>
<path class="st0" d="M41.3,0.2H11.7C9.1,0.2,7,2.3,7,4.9v43.2c0,2.6,2.1,4.7,4.7,4.7h20.9c0.1,0,0.3,0,0.4,0h0.1
	c0.1,0,0.2-0.1,0.3-0.1c0,0,0.1,0,0.1-0.1c0.1,0,0.2-0.1,0.2-0.1l0.1-0.1c0.1-0.1,0.1-0.1,0.2-0.2c0,0,0,0,0.1-0.1l11.5-13.6
	c0.3-0.4,0.5-0.8,0.5-1.3V4.9C46,2.3,43.9,0.2,41.3,0.2z M11.6,47.2V5.8C11.6,5.4,12,5,12.4,5h28.3c0.4,0,0.8,0.4,0.8,0.8v29.1h-9.1
	c-1,0-1.9,0.8-1.9,1.9V48H12.4C11.9,48,11.6,47.6,11.6,47.2z M39.9,39.2l-5.3,6.4v-6.4H39.9z"/>
</svg>
