<?xml version="1.0" encoding="utf-8"?>
<!-- Generator: Adobe Illustrator 21.0.0, SVG Export Plug-In . SVG Version: 6.00 Build 0)  -->
<svg version="1.1" id="Layer_1" xmlns="http://www.w3.org/2000/svg" xmlns:xlink="http://www.w3.org/1999/xlink" x="0px" y="0px"
	 viewBox="0 0 53 53" style="enable-background:new 0 0 53 53;" xml:space="preserve">
<style type="text/css">
	.st0{fill:#BABABA;}
</style>
<path class="st0" d="M50,6.8L46.1,3c-2.6-2.6-6.9-2.6-9.5,0L6.1,33.5c-0.7,0.7-1.2,1.7-1.3,2.7L1.2,48.5c-0.3,0.9,0,2,0.7,2.7
	C2.4,51.7,3,52,3.7,52c0.3,0,0.5-0.1,0.7-0.1l12.3-3.6c0.9-0.1,1.9-0.6,2.7-1.3L50,16.4C52.6,13.8,52.6,9.4,50,6.8z M16.1,42.6
	l-5.7-5.7l24.1-24.1l5.7,5.7L16.1,42.6z M46.2,12.5L44,14.7L38.3,9l2.2-2.2c0.5-0.5,1.3-0.5,1.9,0l3.8,3.8c0.3,0.3,0.4,0.7,0.4,0.9
	C46.6,11.8,46.5,12.2,46.2,12.5z"/>
</svg>
