<?xml version="1.0" encoding="utf-8"?>
<!-- Generator: Adobe Illustrator 21.0.0, SVG Export Plug-In . SVG Version: 6.00 Build 0)  -->
<svg version="1.1" id="Layer_1" xmlns="http://www.w3.org/2000/svg" xmlns:xlink="http://www.w3.org/1999/xlink" x="0px" y="0px"
	 viewBox="0 0 53 53" style="enable-background:new 0 0 53 53;" xml:space="preserve">
<style type="text/css">
	.st0{opacity:0.8;}
	.st1{fill:url(#SVGID_1_);}
	.st2{fill:#FFFFFF;}
	.st3{fill:#F4F4F4;}
	.st4{fill:#EFF5F7;}
	.st5{fill:#FCFCFC;}
	.st6{fill:#FFFFFF;stroke:#9B9B9B;stroke-width:0.5;stroke-linejoin:round;stroke-miterlimit:10;}
	.st7{fill:#525252;}
	.st8{fill:#DBDBDB;}
	.st9{fill:#CECECE;}
	.st10{fill:#EDEDED;}
	.st11{fill:#EEEEEE;}
	.st12{fill:#0099FF;}
	.st13{fill:none;stroke:#EDEDED;stroke-miterlimit:10;}
	.st14{fill:#C1C1C1;}
	.st15{fill:#3F3F3F;}
	.st16{fill:#EFEFEF;}
	.st17{fill:none;stroke:#3F3F3F;stroke-miterlimit:10;}
	.st18{fill:#40396B;}
	.st19{fill:none;stroke:#40396B;stroke-width:10;stroke-miterlimit:10;}
	.st20{fill:#373737;}
	.st21{fill:none;stroke:#373737;stroke-width:3;stroke-miterlimit:10;}
	.st22{fill:none;stroke:#FFA727;stroke-width:1.2;stroke-miterlimit:10;}
	.st23{fill:#252525;}
	.st24{fill:none;stroke:#000000;stroke-miterlimit:10;}
	.st25{fill:none;stroke:#9B9B9B;stroke-width:0.5;stroke-miterlimit:10;}
	.st26{fill:#C6C6C6;}
	.st27{fill:none;stroke:#252525;stroke-miterlimit:10;}
	.st28{fill:#F2F2F2;}
	.st29{fill:none;stroke:#C6C6C6;stroke-width:0.5;stroke-miterlimit:10;}
	.st30{fill:#C6C6C6;stroke:#777777;stroke-width:3;stroke-linecap:round;stroke-miterlimit:10;}
	.st31{fill:none;stroke:#252525;stroke-width:2;stroke-miterlimit:10;}
	.st32{fill:#9B9B9B;}
	.st33{fill:#9B9B9B;stroke:#9B9B9B;stroke-width:2;stroke-miterlimit:10;}
	.st34{opacity:0.8;fill:#FFFFFF;}
	.st35{fill:none;stroke:#9B9B9B;stroke-width:0.5;stroke-linejoin:round;stroke-miterlimit:10;}
	.st36{fill:#272738;}
	.st37{fill:#CCCCCC;}
	.st38{fill:none;stroke:#E55A5A;stroke-miterlimit:10;}
	.st39{fill:#E55A5A;}
	.st40{fill:#FFA539;}
	.st41{fill:#91A8B0;}
	.st42{fill:#AFAFAF;}
	.st43{fill:none;stroke:#AFAFAF;stroke-miterlimit:10;}
	.st44{fill:none;stroke:#252525;stroke-width:3;stroke-linecap:round;stroke-linejoin:round;stroke-miterlimit:10;}
	.st45{fill:none;stroke:#252525;stroke-width:2;stroke-linecap:round;stroke-miterlimit:10;}
	.st46{fill:none;stroke:#CECECE;stroke-width:3;stroke-linecap:round;stroke-linejoin:round;stroke-miterlimit:10;}
	.st47{fill:none;stroke:#CECECE;stroke-width:2;stroke-linecap:round;stroke-miterlimit:10;}
	.st48{fill:none;stroke:#CECECE;stroke-width:3;stroke-linecap:round;stroke-miterlimit:10;}
	.st49{fill:none;stroke:#252525;stroke-width:5;stroke-miterlimit:10;}
	.st50{fill:#69A833;}
	.st51{fill:#349B29;}
	.st52{fill:none;stroke:#E55A5A;stroke-width:3;stroke-linecap:round;stroke-linejoin:round;stroke-miterlimit:10;}
	.st53{fill:none;stroke:#E55A5A;stroke-width:2;stroke-linecap:round;stroke-miterlimit:10;}
	.st54{fill:none;stroke:#BABABA;stroke-width:3;stroke-linecap:round;stroke-linejoin:round;stroke-miterlimit:10;}
	.st55{fill:none;stroke:#BABABA;stroke-width:2;stroke-linecap:round;stroke-miterlimit:10;}
	.st56{fill:none;stroke:#BABABA;stroke-width:3;stroke-linecap:round;stroke-miterlimit:10;}
	.st57{fill:url(#SVGID_2_);}
	.st58{fill:#919191;}
	.st59{fill:#BABABA;}
	.st60{fill:url(#SVGID_3_);}
	.st61{fill:none;stroke:#BABABA;stroke-width:2;stroke-miterlimit:10;}
	.st62{fill:#474747;}
	.st63{fill:url(#SVGID_4_);}
	.st64{fill:none;stroke:#7A7A7A;stroke-width:0.5;stroke-miterlimit:10;}
	.st65{fill:#3EBA3E;}
	.st66{fill:#BCBCBC;}
	.st67{fill:#B7B7B7;}
	.st68{fill:none;stroke:#BCBCBC;stroke-width:2;stroke-linecap:round;stroke-miterlimit:10;}
	.st69{fill:none;stroke:#E55A5A;stroke-width:5;stroke-linecap:round;stroke-miterlimit:10;}
	.st70{fill:none;stroke:#FFA539;stroke-width:5;stroke-linecap:round;stroke-miterlimit:10;}
	.st71{fill:none;stroke:#BCBCBC;stroke-width:5;stroke-linecap:round;stroke-miterlimit:10;}
	.st72{fill:none;stroke:#3EBA3E;stroke-width:5;stroke-linecap:round;stroke-miterlimit:10;}
	.st73{fill:none;stroke:#E55A5A;stroke-width:7;stroke-linecap:round;stroke-miterlimit:10;}
</style>
<path class="st39" d="M41.3,0.2H11.7C9.1,0.2,7,2.3,7,4.9v43.2c0,2.6,2.1,4.7,4.7,4.7h20.9c0.1,0,0.3,0,0.4,0c0,0,0.1,0,0.1,0
	c0.1,0,0.2-0.1,0.3-0.1c0,0,0.1,0,0.1-0.1c0.1,0,0.2-0.1,0.2-0.1c0,0,0.1-0.1,0.1-0.1c0.1-0.1,0.1-0.1,0.2-0.2c0,0,0,0,0.1-0.1
	l11.5-13.6c0.3-0.4,0.5-0.8,0.5-1.3V4.9C46,2.3,43.9,0.2,41.3,0.2z M10.9,48.1V4.9c0-0.5,0.4-0.8,0.8-0.8h29.5
	c0.5,0,0.8,0.4,0.8,0.8v30.4h-9.5c-1.1,0-1.9,0.9-1.9,1.9v11.7H11.7C11.3,48.9,10.9,48.6,10.9,48.1z M39.9,39.2l-5.3,6.4v-6.4H39.9z
	"/>
<path class="st39" d="M41.3,0.2H11.7C9.1,0.2,7,2.3,7,4.9v43.2c0,2.6,2.1,4.7,4.7,4.7h20.9c0.1,0,0.3,0,0.4,0c0,0,0.1,0,0.1,0
	c0.1,0,0.2-0.1,0.3-0.1c0,0,0.1,0,0.1-0.1c0.1,0,0.2-0.1,0.2-0.1c0,0,0.1-0.1,0.1-0.1c0.1-0.1,0.1-0.1,0.2-0.2c0,0,0,0,0.1-0.1
	l11.5-13.6c0.3-0.4,0.5-0.8,0.5-1.3V4.9C46,2.3,43.9,0.2,41.3,0.2z M11.6,47.2V5.8c0-0.4,0.4-0.8,0.8-0.8h28.3
	c0.4,0,0.8,0.4,0.8,0.8v29.1h-9.1c-1,0-1.9,0.8-1.9,1.9V48H12.4C11.9,48,11.6,47.6,11.6,47.2z M39.9,39.2l-5.3,6.4v-6.4H39.9z"/>
</svg>
