<svg id="Layer_1" data-name="Layer 1" xmlns="http://www.w3.org/2000/svg" viewBox="0 0 120 120"><defs><style>.cls-1{fill:#252525;}</style></defs><title>menu</title><path class="cls-1" d="M84.57,54.62H13.69a5.43,5.43,0,0,0-4.87,5,5.43,5.43,0,0,0,4.87,5H84.57a5.43,5.43,0,0,0,4.87-5A5.43,5.43,0,0,0,84.57,54.62Z"/><path class="cls-1" d="M106.32,21.26H13.69a5.43,5.43,0,0,0-4.87,5,5.43,5.43,0,0,0,4.87,5h92.63a5.43,5.43,0,0,0,4.87-5A5.43,5.43,0,0,0,106.32,21.26Z"/><path class="cls-1" d="M63.32,88H13.69a5,5,0,0,0,0,10H63.32a5,5,0,0,0,0-10Z"/></svg>