<?xml version="1.0" encoding="utf-8"?>
<!-- Generator: Adobe Illustrator 21.0.0, SVG Export Plug-In . SVG Version: 6.00 Build 0)  -->
<svg version="1.1" id="Layer_1" xmlns="http://www.w3.org/2000/svg" xmlns:xlink="http://www.w3.org/1999/xlink" x="0px" y="0px"
	 viewBox="0 0 32.4 34" style="enable-background:new 0 0 32.4 34;" xml:space="preserve">
<style type="text/css">
	.st0{opacity:0.8;}
	.st1{fill:url(#SVGID_1_);}
	.st2{fill:#FFFFFF;}
	.st3{fill:#F4F4F4;}
	.st4{fill:#EFF5F7;}
	.st5{fill:#FCFCFC;}
	.st6{fill:#FFFFFF;stroke:#9B9B9B;stroke-width:0.5;stroke-linejoin:round;stroke-miterlimit:10;}
	.st7{fill:#525252;}
	.st8{fill:#DBDBDB;}
	.st9{fill:#CECECE;}
	.st10{fill:#EDEDED;}
	.st11{fill:#EEEEEE;}
	.st12{fill:#0099FF;}
	.st13{fill:none;stroke:#EDEDED;stroke-miterlimit:10;}
	.st14{fill:#C1C1C1;}
	.st15{fill:#3F3F3F;}
	.st16{fill:#EFEFEF;}
	.st17{fill:none;stroke:#3F3F3F;stroke-miterlimit:10;}
	.st18{fill:#40396B;}
	.st19{fill:none;stroke:#40396B;stroke-width:10;stroke-miterlimit:10;}
	.st20{fill:#373737;}
	.st21{fill:none;stroke:#373737;stroke-width:3;stroke-miterlimit:10;}
	.st22{fill:none;stroke:#FFA727;stroke-width:1.2;stroke-miterlimit:10;}
	.st23{fill:#252525;}
	.st24{fill:none;stroke:#000000;stroke-miterlimit:10;}
	.st25{fill:none;stroke:#9B9B9B;stroke-width:0.5;stroke-miterlimit:10;}
	.st26{fill:#C6C6C6;}
	.st27{fill:none;stroke:#252525;stroke-miterlimit:10;}
	.st28{fill:#F2F2F2;}
	.st29{fill:none;stroke:#C6C6C6;stroke-width:0.5;stroke-miterlimit:10;}
	.st30{fill:#C6C6C6;stroke:#777777;stroke-width:3;stroke-linecap:round;stroke-miterlimit:10;}
	.st31{fill:none;stroke:#252525;stroke-width:2;stroke-miterlimit:10;}
	.st32{fill:#9B9B9B;}
	.st33{fill:#9B9B9B;stroke:#9B9B9B;stroke-width:2;stroke-miterlimit:10;}
	.st34{opacity:0.8;fill:#FFFFFF;}
	.st35{fill:none;stroke:#9B9B9B;stroke-width:0.5;stroke-linejoin:round;stroke-miterlimit:10;}
	.st36{fill:#272738;}
	.st37{fill:#CCCCCC;}
	.st38{fill:none;stroke:#E55A5A;stroke-miterlimit:10;}
	.st39{fill:#E55A5A;}
	.st40{fill:#FFA539;}
	.st41{fill:#91A8B0;}
	.st42{fill:#AFAFAF;}
	.st43{fill:none;stroke:#AFAFAF;stroke-miterlimit:10;}
	.st44{fill:none;stroke:#252525;stroke-width:3;stroke-linecap:round;stroke-linejoin:round;stroke-miterlimit:10;}
	.st45{fill:none;stroke:#252525;stroke-width:2;stroke-linecap:round;stroke-miterlimit:10;}
	.st46{fill:none;stroke:#CECECE;stroke-width:3;stroke-linecap:round;stroke-linejoin:round;stroke-miterlimit:10;}
	.st47{fill:none;stroke:#CECECE;stroke-width:2;stroke-linecap:round;stroke-miterlimit:10;}
	.st48{fill:none;stroke:#CECECE;stroke-width:3;stroke-linecap:round;stroke-miterlimit:10;}
	.st49{fill:none;stroke:#252525;stroke-width:5;stroke-miterlimit:10;}
	.st50{fill:#69A833;}
	.st51{fill:#349B29;}
	.st52{fill:none;stroke:#E55A5A;stroke-width:3;stroke-linecap:round;stroke-linejoin:round;stroke-miterlimit:10;}
	.st53{fill:none;stroke:#E55A5A;stroke-width:2;stroke-linecap:round;stroke-miterlimit:10;}
	.st54{fill:none;stroke:#BABABA;stroke-width:3;stroke-linecap:round;stroke-linejoin:round;stroke-miterlimit:10;}
	.st55{fill:none;stroke:#BABABA;stroke-width:2;stroke-linecap:round;stroke-miterlimit:10;}
	.st56{fill:none;stroke:#BABABA;stroke-width:3;stroke-linecap:round;stroke-miterlimit:10;}
	.st57{fill:url(#SVGID_2_);}
	.st58{fill:#919191;}
	.st59{fill:#BABABA;}
	.st60{fill:url(#SVGID_3_);}
	.st61{fill:none;stroke:#BABABA;stroke-width:2;stroke-miterlimit:10;}
	.st62{fill:#474747;}
	.st63{fill:url(#SVGID_4_);}
	.st64{fill:none;stroke:#7A7A7A;stroke-width:0.5;stroke-miterlimit:10;}
	.st65{fill:#3EBA3E;}
	.st66{fill:#BCBCBC;}
	.st67{fill:#B7B7B7;}
	.st68{fill:none;stroke:#BCBCBC;stroke-width:2;stroke-linecap:round;stroke-miterlimit:10;}
	.st69{fill:none;stroke:#E55A5A;stroke-width:5;stroke-linecap:round;stroke-miterlimit:10;}
	.st70{fill:none;stroke:#FFA539;stroke-width:5;stroke-linecap:round;stroke-miterlimit:10;}
	.st71{fill:none;stroke:#BCBCBC;stroke-width:5;stroke-linecap:round;stroke-miterlimit:10;}
	.st72{fill:none;stroke:#3EBA3E;stroke-width:5;stroke-linecap:round;stroke-miterlimit:10;}
	.st73{fill:none;stroke:#E55A5A;stroke-width:7;stroke-linecap:round;stroke-miterlimit:10;}
</style>
<g>
	<path class="st62" d="M27.6,6.3c-1.5-1.5-4.1-0.9-4.7,1.2c-0.3,1.1,0,2.1,0.8,2.9c2.3,2.4,3.3,5.3,2.9,8.6
		c-0.7,6.1-6.6,10.3-12.6,9c-5.4-1.2-9-6.4-8.2-11.9c0.4-2.3,1.4-4.2,3-5.8c1.1-1.2,1.1-3-0.1-4.1c-1.2-1.1-2.9-1-4,0.2
		c-3.8,4-5.3,8.8-4.4,14.3c1.6,8.8,10.1,14.6,18.9,13c7.7-1.5,13.2-8.1,13.2-15.9c0-0.4,0-0.9-0.1-1.3C32,12.5,30.4,9.2,27.6,6.3z"
		/>
	<path class="st62" d="M13.3,10.6c0,2.7,0,5.3,0,7.9c0,1.5,1.3,2.8,2.8,2.7S19,20,19,18.5c0-5.3,0-10.5,0-15.8
		c0-0.7-0.3-1.3-0.8-1.9c-1.1-1.1-2.9-1.2-4-0.1c-0.6,0.5-0.9,1.3-0.9,2C13.3,5.4,13.3,8,13.3,10.6L13.3,10.6L13.3,10.6z"/>
</g>
</svg>
