<svg id="Layer_1" data-name="Layer 1" xmlns="http://www.w3.org/2000/svg" viewBox="0 0 120 120"><defs><style>.cls-1{fill:#252525;}</style></defs><title>JobBoard</title><path class="cls-1" d="M115.5,60.15A55.85,55.85,0,1,0,59.65,116,55.81,55.81,0,0,0,115.5,60.15Zm-106.21,0a50.36,50.36,0,1,1,100.72,0,49.49,49.49,0,0,1-15.23,36A40.62,40.62,0,0,0,59.51,75.93,41.08,41.08,0,0,0,24.25,96.1,50.35,50.35,0,0,1,9.29,60.15ZM28.64,99.81a35.51,35.51,0,0,1,31-18.39,35.08,35.08,0,0,1,31,18.39,50.28,50.28,0,0,1-62,0Z"/><path class="cls-1" d="M59.65,68.8a22,22,0,1,0-22-22A22,22,0,0,0,59.65,68.8Zm0-38.42A16.47,16.47,0,1,1,43.18,46.84,16.52,16.52,0,0,1,59.65,30.37Z"/></svg>